<svg id="Outline" height="512" viewBox="0 0 64 64" width="512" xmlns="http://www.w3.org/2000/svg"><path d="m59 32a1 1 0 0 0 -1-1h-16v-25a1 1 0 0 0 -1-1h-26a1 1 0 0 0 -1 1v25h-8a1 1 0 0 0 -1 1v25h-3v2h60v-2h-3zm-17 1h6v3.586l-.293-.293a1 1 0 0 0 -1.414 0l-1.293 1.293-1.293-1.293a1 1 0 0 0 -1.414 0l-.293.293zm-11-26v3.586l-.293-.293a1 1 0 0 0 -1.414 0l-1.293 1.293-1.293-1.293a1 1 0 0 0 -1.414 0l-.293.293v-3.586zm-15 0h7v6a1 1 0 0 0 1.707.707l1.293-1.293 1.293 1.293a1 1 0 0 0 1.414 0l1.293-1.293 1.293 1.293a1 1 0 0 0 1.707-.707v-6h7v24h-24zm0 26h6v3.586l-.293-.293a1 1 0 0 0 -1.414 0l-1.293 1.293-1.293-1.293a1 1 0 0 0 -1.414 0l-.293.293zm-9 0h7v6a1 1 0 0 0 1.707.707l1.293-1.293 1.293 1.293a1 1 0 0 0 1.414 0l1.293-1.293 1.293 1.293a1 1 0 0 0 1.707-.707v-6h7v24h-24zm26 24v-24h7v6a1 1 0 0 0 1.707.707l1.293-1.293 1.293 1.293a1 1 0 0 0 1.414 0l1.293-1.293 1.293 1.293a1 1 0 0 0 1.707-.707v-6h7v24z"/><path d="m9 41h5v2h-5z"/><path d="m9 45h7v2h-7z"/><path d="m35 41h6v2h-6z"/><path d="m35 45h9v2h-9z"/><path d="m18 15h3v2h-3z"/><path d="m18 19h9v2h-9z"/><path d="m28 49h-4a1 1 0 0 0 -1 1v4a1 1 0 0 0 1 1h4a1 1 0 0 0 1-1v-4a1 1 0 0 0 -1-1zm-1 4h-2v-2h2z"/><path d="m54 49h-4a1 1 0 0 0 -1 1v4a1 1 0 0 0 1 1h4a1 1 0 0 0 1-1v-4a1 1 0 0 0 -1-1zm-1 4h-2v-2h2z"/><path d="m33 29h4a1 1 0 0 0 1-1v-4a1 1 0 0 0 -1-1h-4a1 1 0 0 0 -1 1v4a1 1 0 0 0 1 1zm1-4h2v2h-2z"/></svg>